<?xml version="1.0" encoding="UTF-8"?>
<svg version="1.1" xmlns="http://www.w3.org/2000/svg" width="512" height="512">
<path d="M0 0 C0.9355925 -0.00974854 1.871185 -0.01949707 2.83512878 -0.02954102 C23.24416486 -0.1984297 42.96079539 -0.03089418 63.0078125 4.23828125 C63.93158691 4.42551758 64.85536133 4.61275391 65.80712891 4.80566406 C101.4803425 12.13655694 136.04867954 27.05718327 165.0078125 49.23828125 C165.5857959 49.67495117 166.1637793 50.11162109 166.75927734 50.56152344 C175.26586251 57.002323 183.31244993 63.84319145 191.0078125 71.23828125 C191.60239258 71.80562988 192.19697266 72.37297852 192.80957031 72.95751953 C201.15799553 80.96365501 208.80764092 89.18319073 215.69726562 98.47900391 C217.02578341 100.26240538 218.38141287 102.02237641 219.7421875 103.78125 C227.10148221 113.40694237 233.21551204 123.60687263 239.0078125 134.23828125 C239.3697168 134.89876465 239.73162109 135.55924805 240.10449219 136.23974609 C257.60985188 168.57859478 268.92626162 206.31643928 269.24609375 243.23046875 C269.25584229 244.16606125 269.26559082 245.10165375 269.27563477 246.06559753 C269.44452345 266.47463361 269.27698793 286.19126414 265.0078125 306.23828125 C264.82057617 307.16205566 264.63333984 308.08583008 264.44042969 309.03759766 C257.10953681 344.71081125 242.18891048 379.27914829 220.0078125 408.23828125 C219.57114258 408.81626465 219.13447266 409.39424805 218.68457031 409.98974609 C212.24377075 418.49633126 205.4029023 426.54291868 198.0078125 434.23828125 C197.44046387 434.83286133 196.87311523 435.42744141 196.28857422 436.04003906 C188.28243874 444.38846428 180.06290302 452.03810967 170.76708984 458.92773438 C168.98368837 460.25625216 167.22371734 461.61188162 165.46484375 462.97265625 C155.83915138 470.33195096 145.63922112 476.44598079 135.0078125 482.23828125 C134.3473291 482.60018555 133.6868457 482.96208984 133.00634766 483.33496094 C100.66749897 500.84032063 62.92965447 512.15673037 26.015625 512.4765625 C25.0800325 512.48631104 24.14444 512.49605957 23.18049622 512.50610352 C2.77146014 512.6749922 -16.94517039 512.50745668 -36.9921875 508.23828125 C-37.91596191 508.05104492 -38.83973633 507.86380859 -39.79150391 507.67089844 C-75.4647175 500.34000556 -110.03305454 485.41937923 -138.9921875 463.23828125 C-139.5701709 462.80161133 -140.1481543 462.36494141 -140.74365234 461.91503906 C-149.25023751 455.4742395 -157.29682493 448.63337105 -164.9921875 441.23828125 C-165.58676758 440.67093262 -166.18134766 440.10358398 -166.79394531 439.51904297 C-175.14237053 431.51290749 -182.79201592 423.29337177 -189.68164062 413.99755859 C-191.01015841 412.21415712 -192.36578787 410.45418609 -193.7265625 408.6953125 C-201.08585721 399.06962013 -207.19988704 388.86968987 -212.9921875 378.23828125 C-213.3540918 377.57779785 -213.71599609 376.91731445 -214.08886719 376.23681641 C-231.59422688 343.89796772 -242.91063662 306.16012322 -243.23046875 269.24609375 C-243.24021729 268.31050125 -243.24996582 267.37490875 -243.26000977 266.41096497 C-243.42889845 246.00192889 -243.26136293 226.28529836 -238.9921875 206.23828125 C-238.80495117 205.31450684 -238.61771484 204.39073242 -238.42480469 203.43896484 C-231.09391181 167.76575125 -216.17328548 133.19741421 -193.9921875 104.23828125 C-193.55551758 103.66029785 -193.11884766 103.08231445 -192.66894531 102.48681641 C-186.22814575 93.98023124 -179.3872773 85.93364382 -171.9921875 78.23828125 C-171.42483887 77.64370117 -170.85749023 77.04912109 -170.27294922 76.43652344 C-162.26681374 68.08809822 -154.04727802 60.43845283 -144.75146484 53.54882812 C-142.96806337 52.22031034 -141.20809234 50.86468088 -139.44921875 49.50390625 C-129.82352638 42.14461154 -119.62359612 36.03058171 -108.9921875 30.23828125 C-108.3317041 29.87637695 -107.6712207 29.51447266 -106.99072266 29.14160156 C-74.65187397 11.63624187 -36.91402947 0.31983213 0 0 Z " fill="#191B26" transform="translate(242.9921875,-0.23828125)"/>
<path d="M0 0 C3.95187881 0.85910409 4.53113425 2.31922519 6.875 5.625 C8.86489998 8.85489913 10.7508931 12.13936699 12.625 15.4375 C13.13160156 16.32115234 13.63820313 17.20480469 14.16015625 18.11523438 C15.40223909 20.28302046 16.64038423 22.45295538 17.875 24.625 C17.99907227 24.0050415 18.12314453 23.38508301 18.25097656 22.74633789 C18.42081055 21.93414795 18.59064453 21.12195801 18.765625 20.28515625 C19.0136084 19.07678101 19.0136084 19.07678101 19.26660156 17.84399414 C20.11254098 14.75862361 21.18159799 13.34578462 23.875 11.625 C26.75 10.875 26.75 10.875 29.875 11.625 C32.22096444 14.07759918 34.07011432 16.75766388 35.875 19.625 C37.98499115 17.06018854 39.96136668 14.49544998 41.8046875 11.73046875 C42.44664062 10.76753906 43.08859375 9.80460938 43.75 8.8125 C44.70519531 7.34876953 44.70519531 7.34876953 45.6796875 5.85546875 C47.875 3.625 47.875 3.625 51.02734375 3.234375 C53.875 3.625 53.875 3.625 55.5625 4.6875 C58.69686734 9.31442321 60.29764444 14.69802024 61.98046875 19.98046875 C62.65737975 21.98164233 63.40123264 23.96033508 64.17578125 25.92578125 C68.67724015 37.52813306 69.13819189 45.92659844 64.875 57.625 C65.761875 57.728125 66.64875 57.83125 67.5625 57.9375 C70.98229287 58.64726833 73.08406859 59.55173667 75.875 61.625 C77.46824804 66.40474413 77.37594116 70.23976078 75.66015625 74.984375 C71.9552846 82.27650332 68.09283415 88.29896431 62.59765625 94.41796875 C60.567354 96.55252668 60.567354 96.55252668 60.875 99.625 C62.85381925 101.93890989 62.85381925 101.93890989 65.46875 104.3359375 C66.41621094 105.25117188 67.36367188 106.16640625 68.33984375 107.109375 C69.85650456 108.55774431 71.37691928 110.00180948 72.90283203 111.44042969 C74.37293394 112.83195472 75.82732959 114.24001392 77.28125 115.6484375 C78.16103516 116.48294434 79.04082031 117.31745117 79.94726562 118.17724609 C81.875 120.625 81.875 120.625 82.16210938 123.43603516 C82.06736328 124.15839355 81.97261719 124.88075195 81.875 125.625 C80.08203125 126.28125 80.08203125 126.28125 77.875 126.625 C76.26171875 125.71875 76.26171875 125.71875 74.5625 124.125 C73.88574219 123.49464844 73.20898438 122.86429687 72.51171875 122.21484375 C66.58766351 116.39610505 60.70947945 110.53354999 54.875 104.625 C51.2705801 106.34864407 48.34680371 108.48026378 45.1875 110.9375 C29.95185046 122.4882267 29.95185046 122.4882267 19.875 121.625 C15.8015847 119.58829235 15.06994511 118.18198604 13.5625 113.875 C13.335625 112.8025 13.10875 111.73 12.875 110.625 C10.06647182 110.46451268 8.16818192 110.49821863 5.5625 111.625 C-1.30248023 114.17941125 -7.5486534 112.18604489 -14.125 109.8125 C-15.25808594 109.42094727 -15.25808594 109.42094727 -16.4140625 109.02148438 C-20.1152378 107.73370431 -23.78693058 106.37850548 -27.44921875 104.984375 C-31.10443575 103.55400576 -31.10443575 103.55400576 -34.9375 102.6875 C-38.125 101.625 -38.125 101.625 -40.0625 99.8125 C-41.40281953 97.05301861 -41.60850768 95.66930761 -41.125 92.625 C-38.67578125 90.23828125 -38.67578125 90.23828125 -35.4375 87.9375 C-34.38175781 87.17050781 -33.32601563 86.40351563 -32.23828125 85.61328125 C-29.55150455 83.89738496 -27.12360343 82.6653318 -24.125 81.625 C-24.125 80.965 -24.125 80.305 -24.125 79.625 C-25.23875 79.25375 -25.23875 79.25375 -26.375 78.875 C-29.45310608 77.47586087 -31.09523779 76.33134961 -33.125 73.625 C-33.625 70.5625 -33.625 70.5625 -33.125 67.625 C-30.13121731 64.74313442 -27.42078582 64.06363352 -23.375 63.4375 C-22.39015625 63.27894531 -21.4053125 63.12039062 -20.390625 62.95703125 C-19.64296875 62.84746094 -18.8953125 62.73789063 -18.125 62.625 C-18.77049805 62.28766846 -19.41599609 61.95033691 -20.08105469 61.6027832 C-23.01862277 60.05926599 -25.94675247 58.49862196 -28.875 56.9375 C-29.89078125 56.40705078 -30.9065625 55.87660156 -31.953125 55.33007812 C-33.42265625 54.54213867 -33.42265625 54.54213867 -34.921875 53.73828125 C-35.82260742 53.26173096 -36.72333984 52.78518066 -37.65136719 52.29418945 C-41.17607407 49.91574285 -43.73988844 47.33660695 -44.6875 43.125 C-43.86674271 39.47718981 -41.94259512 37.99434135 -39.125 35.625 C-36.8125 34.3125 -36.8125 34.3125 -35.125 33.625 C-36.08983339 30.50784597 -36.99533012 27.82947943 -38.75 25.0625 C-40.9141126 19.65221849 -41.02407577 14.36125202 -40.125 8.625 C-38.45464552 5.56574271 -37.43924019 5.22293723 -34.125 3.625 C-25.44559003 2.12855 -17.69410984 6.76835832 -10.125 10.625 C-10.08375 9.903125 -10.0425 9.18125 -10 8.4375 C-8.45814789 3.48154678 -5.00341674 1.00068335 0 0 Z " fill="#191E27" transform="translate(291.125,138.375)"/>
<path d="M0 0 C8.19146725 5.64333069 10.94310148 13.79159694 12.75537109 23.3371582 C13.5490084 28.76200505 13.49043258 34.1820728 13.53515625 39.65625 C13.57866211 41.39648438 13.57866211 41.39648438 13.62304688 43.171875 C13.72858303 57.68715521 8.51632656 70.1158719 -1.125 80.93359375 C-3.59890431 83.32561943 -6.3188826 85.30774844 -9.140625 87.26953125 C-10.91846712 88.45071343 -10.91846712 88.45071343 -11.77734375 90.53125 C-10.76607422 90.66853516 -10.76607422 90.66853516 -9.734375 90.80859375 C-6.02636803 91.71477775 -2.82905882 93.34408099 0.53515625 95.09375 C1.18033203 95.42310547 1.82550781 95.75246094 2.49023438 96.09179688 C4.07050853 96.89949255 5.6469773 97.71462613 7.22265625 98.53125 C7.03566725 102.35413632 6.25329351 103.50083126 3.484375 106.25 C2.30696938 107.1948007 1.11458673 108.12115133 -0.08984375 109.03125 C-0.71560303 109.51319824 -1.3413623 109.99514648 -1.98608398 110.49169922 C-15.42225634 120.49284356 -30.46043288 122.21599503 -46.77734375 120.53125 C-53.5406503 119.03854174 -60.01622674 116.37199467 -65.77734375 112.53125 C-66.03515625 113.25957031 -66.29296875 113.98789062 -66.55859375 114.73828125 C-71.67666307 126.46719012 -85.04160501 139.53770218 -96.77734375 144.53125 C-99.6015625 144.20703125 -99.6015625 144.20703125 -101.77734375 143.53125 C-101.578125 141.22265625 -101.578125 141.22265625 -100.77734375 138.53125 C-98.6953125 136.93359375 -98.6953125 136.93359375 -95.96484375 135.46875 C-86.21976532 129.64454297 -76.99347314 120.73473117 -71.77734375 110.53125 C-71.77734375 109.87125 -71.77734375 109.21125 -71.77734375 108.53125 C-73.33201656 107.18757361 -73.33201656 107.18757361 -75.33984375 105.84375 C-86.78441884 97.41619822 -94.72040833 86.15790653 -97.37890625 72.01953125 C-98.61812368 61.17030417 -98.543806 50.91144062 -94.77734375 40.53125 C-92.5546875 39.83984375 -92.5546875 39.83984375 -89.77734375 39.53125 C-87.53125 40.75390625 -87.53125 40.75390625 -85.33984375 42.59375 C-84.56898438 43.23570312 -83.798125 43.87765625 -83.00390625 44.5390625 C-80.13791669 47.10336895 -77.42793394 49.74473211 -74.77734375 52.53125 C-74.679375 51.70882812 -74.58140625 50.88640625 -74.48046875 50.0390625 C-72.37860941 34.34759539 -66.38307189 22.96274883 -54.34399414 12.48925781 C-50.01188744 9.18444513 -45.28161028 6.96619366 -40.33984375 4.71875 C-39.36724609 4.25533203 -38.39464844 3.79191406 -37.39257812 3.31445312 C-25.07403969 -2.43748967 -12.70277231 -7.24722351 0 0 Z " fill="#01CA67" transform="translate(221.77734375,250.46875)"/>
<path d="M0 0 C1.796875 0.05859375 1.796875 0.05859375 4 1 C5.56196024 2.99942655 6.90656072 4.92634257 8.25 7.0625 C14.46463195 16.43553408 22.10334816 24.38816673 32 30 C35.78934264 28.73688579 36.52554172 27.19171691 38.875 24 C47.69625832 13.04456628 60.03927939 5.31935142 74.2265625 3.75439453 C83.83380192 3.10102083 92.81032534 3.97281305 102 7 C102.73046875 9.15234375 102.73046875 9.15234375 103 12 C101.48828125 14.75390625 101.48828125 14.75390625 99.3125 17.5625 C98.60738281 18.49191406 97.90226562 19.42132813 97.17578125 20.37890625 C95.22329766 22.73100049 93.2042512 24.88531206 91 27 C91.79921875 27.15855469 92.5984375 27.31710937 93.421875 27.48046875 C109.3913504 30.8730451 122.1766546 36.59760627 132 50 C136.88707276 57.85518484 140.93096384 66.27747617 144 75 C144.4125 76.0725 144.825 77.145 145.25 78.25 C147.23086093 88.15430464 146.80375868 96.00176517 141.375 104.5625 C135.77094562 110.31402949 128.81830302 112.87374529 121 114 C120.26136719 114.11085938 119.52273438 114.22171875 118.76171875 114.3359375 C115.83829307 114.68096701 112.9412076 114.8571599 110 115 C109.20303711 115.03931641 108.40607422 115.07863281 107.58496094 115.11914062 C91.68515566 115.80113882 78.80196686 115.08814758 66.2578125 104.1171875 C65.51273437 103.41851562 64.76765625 102.71984375 64 102 C63.23429687 101.30132812 62.46859375 100.60265625 61.6796875 99.8828125 C58.02933175 96.41562872 55.66693799 93.82578547 54 89 C53.34 89 52.68 89 52 89 C51.89816406 90.01191406 51.79632813 91.02382813 51.69140625 92.06640625 C50.97392373 96.14835485 49.73927467 99.21894376 47.9375 102.9375 C47.11572266 104.65259766 47.11572266 104.65259766 46.27734375 106.40234375 C45.85582031 107.25957031 45.43429687 108.11679687 45 109 C42.8125 109.3671875 42.8125 109.3671875 40 109 C38.05479605 107.06087481 36.57670538 105.33232634 35 103.125 C34.56357178 102.53219238 34.12714355 101.93938477 33.67749023 101.32861328 C24.00137267 87.90031034 20.0283027 73.48154874 22 57 C23.5507534 49.58031812 26.53110883 42.7139829 30 36 C28.90945313 35.61521484 28.90945313 35.61521484 27.796875 35.22265625 C15.70127789 29.93505584 3.76516954 16.64833964 -2 5 C-1.77746554 2.74779784 -1.60007681 1.60007681 0 0 Z " fill="#01CA67" transform="translate(249,289)"/>
<path d="M0 0 C3.49918536 1.43148492 4.74612072 2.59197972 6.75 5.8125 C9.01424298 11.58631959 9.10539345 16.88717987 9 23 C10.85625 22.938125 10.85625 22.938125 12.75 22.875 C16.00283562 22.875 18.28187717 23.04295156 21 25 C22.6050581 28.21011621 22.36664088 30.42172604 22 34 C20.46624998 37.34458789 18.5154035 40.36487624 16.5 43.4375 C15.97535156 44.26443359 15.45070313 45.09136719 14.91015625 45.94335938 C13.62050424 47.97163027 12.31716876 49.98953424 11 52 C11.76183594 51.67644531 12.52367187 51.35289062 13.30859375 51.01953125 C16.46345867 49.82443728 18.64971616 49.64358683 22 50 C24.375 51.125 24.375 51.125 26 53 C26.74838855 57.81106927 25.37188193 60.84920663 23 65 C23.78503906 64.97679687 24.57007813 64.95359375 25.37890625 64.9296875 C31.33404485 64.82739064 36.40428197 64.88606208 42 67 C43 68 43 68 43.5 71.0625 C42.78512061 76.69217518 39.86827612 79.05846108 36 83 C34.65888079 84.49304288 33.32560207 85.99316327 32 87.5 C31.00419922 88.61568359 31.00419922 88.61568359 29.98828125 89.75390625 C27.47181493 92.59667272 25.00263217 95.47909045 22.54296875 98.37109375 C19.58009658 101.49898665 16.92373476 102.37750277 12.8125 103.125 C11.91144531 103.29257813 11.01039063 103.46015625 10.08203125 103.6328125 C9.39496094 103.75398438 8.70789063 103.87515625 8 104 C8.05800781 104.66386719 8.11601562 105.32773438 8.17578125 106.01171875 C8.54570259 113.25160787 8.54570259 113.25160787 5.8125 117 C0.77251591 120.58398868 -3.51393055 121.35901623 -9.625 121.3125 C-10.6759082 121.31056641 -10.6759082 121.31056641 -11.74804688 121.30859375 C-17.80451846 121.19777085 -23.28532731 120.03403604 -29 118 C-29.17015625 118.93199219 -29.3403125 119.86398438 -29.515625 120.82421875 C-33.2593801 140.5187602 -33.2593801 140.5187602 -37 148 C-38.65 148 -40.3 148 -42 148 C-42.38687468 141.06918128 -40.98290918 135.26073881 -39.0625 128.625 C-38.78470703 127.62855469 -38.50691406 126.63210937 -38.22070312 125.60546875 C-36.18174981 118.36349961 -36.18174981 118.36349961 -35 116 C-35.66644531 115.85304688 -36.33289063 115.70609375 -37.01953125 115.5546875 C-46.97651613 113.13158908 -58.10681037 108.83978444 -64 100 C-64.68085106 92.85106383 -64.68085106 92.85106383 -62 89.5 C-61.34 89.005 -60.68 88.51 -60 88 C-61.11446885 85.16317019 -62.07594024 83.93924781 -64.5 82 C-68.45465181 78.83627855 -69.22426769 75.64768628 -70 70.75390625 C-70.165 69.75166016 -70.33 68.74941406 -70.5 67.71679688 C-70.665 66.67587891 -70.83 65.63496094 -71 64.5625 C-71.32808102 62.50045955 -71.66124575 60.43922019 -72 58.37890625 C-72.144375 57.4669751 -72.28875 56.55504395 -72.4375 55.61547852 C-73.0187787 52.91268392 -73.97466841 50.5609749 -75 48 C-75.52543786 41.90492077 -75.52543786 41.90492077 -73.875 39.0625 C-71.09305624 37.4860652 -69.1812782 37.72869941 -66 38 C-63.41984762 39.08289051 -61.06972953 40.17811075 -58.625 41.5 C-57.98433594 41.83386719 -57.34367187 42.16773438 -56.68359375 42.51171875 C-55.11666329 43.33026451 -53.55749759 44.16364513 -52 45 C-52.02320313 44.38511719 -52.04640625 43.77023438 -52.0703125 43.13671875 C-52.09738281 41.92435547 -52.09738281 41.92435547 -52.125 40.6875 C-52.14820313 39.88699219 -52.17140625 39.08648437 -52.1953125 38.26171875 C-52 36 -52 36 -50 33 C-46.6875 32.5 -46.6875 32.5 -43 33 C-40.125 35.4375 -40.125 35.4375 -38 38 C-37.67 38.33 -37.34 38.66 -37 39 C-36.9906543 38.3294458 -36.98130859 37.6588916 -36.97167969 36.96801758 C-36.91783404 33.91544433 -36.83421505 30.86438018 -36.75 27.8125 C-36.73582031 26.75740234 -36.72164062 25.70230469 -36.70703125 24.61523438 C-36.46090252 16.81295359 -36.46090252 16.81295359 -34.1640625 12.76171875 C-32 11 -32 11 -28.625 11 C-25.10474656 11.9711044 -22.1782963 13.2170533 -19 15 C-18.79375 14.319375 -18.5875 13.63875 -18.375 12.9375 C-14.67143116 5.0253302 -9.08594516 -0.95641528 0 0 Z " fill="#191E27" transform="translate(192,108)"/>
<path d="M0 0 C3.95187881 0.85910409 4.53113425 2.31922519 6.875 5.625 C8.86489998 8.85489913 10.7508931 12.13936699 12.625 15.4375 C13.13160156 16.32115234 13.63820313 17.20480469 14.16015625 18.11523438 C15.40223909 20.28302046 16.64038423 22.45295538 17.875 24.625 C17.99907227 24.0050415 18.12314453 23.38508301 18.25097656 22.74633789 C18.42081055 21.93414795 18.59064453 21.12195801 18.765625 20.28515625 C19.0136084 19.07678101 19.0136084 19.07678101 19.26660156 17.84399414 C20.11254098 14.75862361 21.18159799 13.34578462 23.875 11.625 C26.75 10.875 26.75 10.875 29.875 11.625 C32.22096444 14.07759918 34.07011432 16.75766388 35.875 19.625 C37.98499115 17.06018854 39.96136668 14.49544998 41.8046875 11.73046875 C42.44664062 10.76753906 43.08859375 9.80460938 43.75 8.8125 C44.70519531 7.34876953 44.70519531 7.34876953 45.6796875 5.85546875 C47.875 3.625 47.875 3.625 51.02734375 3.234375 C53.875 3.625 53.875 3.625 55.5625 4.6875 C58.69686734 9.31442321 60.29764444 14.69802024 61.98046875 19.98046875 C62.65737975 21.98164233 63.40123264 23.96033508 64.17578125 25.92578125 C68.67724015 37.52813306 69.13819189 45.92659844 64.875 57.625 C65.761875 57.728125 66.64875 57.83125 67.5625 57.9375 C70.98229287 58.64726833 73.08406859 59.55173667 75.875 61.625 C77.46824804 66.40474413 77.37594116 70.23976078 75.66015625 74.984375 C71.9552846 82.27650332 68.09283415 88.29896431 62.59765625 94.41796875 C60.567354 96.55252668 60.567354 96.55252668 60.875 99.625 C62.85381925 101.93890989 62.85381925 101.93890989 65.46875 104.3359375 C66.41621094 105.25117188 67.36367188 106.16640625 68.33984375 107.109375 C69.85650456 108.55774431 71.37691928 110.00180948 72.90283203 111.44042969 C74.37293394 112.83195472 75.82732959 114.24001392 77.28125 115.6484375 C78.16103516 116.48294434 79.04082031 117.31745117 79.94726562 118.17724609 C81.875 120.625 81.875 120.625 82.16210938 123.43603516 C82.06736328 124.15839355 81.97261719 124.88075195 81.875 125.625 C80.08203125 126.28125 80.08203125 126.28125 77.875 126.625 C76.26171875 125.71875 76.26171875 125.71875 74.5625 124.125 C73.88574219 123.49464844 73.20898438 122.86429687 72.51171875 122.21484375 C66.58766351 116.39610505 60.70947945 110.53354999 54.875 104.625 C51.2705801 106.34864407 48.34680371 108.48026378 45.1875 110.9375 C29.95185046 122.4882267 29.95185046 122.4882267 19.875 121.625 C15.8015847 119.58829235 15.06994511 118.18198604 13.5625 113.875 C13.335625 112.8025 13.10875 111.73 12.875 110.625 C10.06647182 110.46451268 8.16818192 110.49821863 5.5625 111.625 C-1.30248023 114.17941125 -7.5486534 112.18604489 -14.125 109.8125 C-15.25808594 109.42094727 -15.25808594 109.42094727 -16.4140625 109.02148438 C-20.1152378 107.73370431 -23.78693058 106.37850548 -27.44921875 104.984375 C-31.10443575 103.55400576 -31.10443575 103.55400576 -34.9375 102.6875 C-38.125 101.625 -38.125 101.625 -40.0625 99.8125 C-41.40281953 97.05301861 -41.60850768 95.66930761 -41.125 92.625 C-38.67578125 90.23828125 -38.67578125 90.23828125 -35.4375 87.9375 C-34.38175781 87.17050781 -33.32601563 86.40351563 -32.23828125 85.61328125 C-29.55150455 83.89738496 -27.12360343 82.6653318 -24.125 81.625 C-24.125 80.965 -24.125 80.305 -24.125 79.625 C-25.23875 79.25375 -25.23875 79.25375 -26.375 78.875 C-29.45310608 77.47586087 -31.09523779 76.33134961 -33.125 73.625 C-33.625 70.5625 -33.625 70.5625 -33.125 67.625 C-30.13121731 64.74313442 -27.42078582 64.06363352 -23.375 63.4375 C-22.39015625 63.27894531 -21.4053125 63.12039062 -20.390625 62.95703125 C-19.64296875 62.84746094 -18.8953125 62.73789063 -18.125 62.625 C-18.77049805 62.28766846 -19.41599609 61.95033691 -20.08105469 61.6027832 C-23.01862277 60.05926599 -25.94675247 58.49862196 -28.875 56.9375 C-29.89078125 56.40705078 -30.9065625 55.87660156 -31.953125 55.33007812 C-33.42265625 54.54213867 -33.42265625 54.54213867 -34.921875 53.73828125 C-35.82260742 53.26173096 -36.72333984 52.78518066 -37.65136719 52.29418945 C-41.17607407 49.91574285 -43.73988844 47.33660695 -44.6875 43.125 C-43.86674271 39.47718981 -41.94259512 37.99434135 -39.125 35.625 C-36.8125 34.3125 -36.8125 34.3125 -35.125 33.625 C-36.08983339 30.50784597 -36.99533012 27.82947943 -38.75 25.0625 C-40.9141126 19.65221849 -41.02407577 14.36125202 -40.125 8.625 C-38.45464552 5.56574271 -37.43924019 5.22293723 -34.125 3.625 C-25.44559003 2.12855 -17.69410984 6.76835832 -10.125 10.625 C-10.08375 9.903125 -10.0425 9.18125 -10 8.4375 C-8.45814789 3.48154678 -5.00341674 1.00068335 0 0 Z M-2.125 6.625 C-2.7958712 8.2482687 -3.46157029 9.87367578 -4.125 11.5 C-4.49625 12.40492188 -4.8675 13.30984375 -5.25 14.2421875 C-6.23990226 16.51483858 -6.23990226 16.51483858 -6.125 18.625 C-10.89545139 17.5408065 -14.74425473 15.82057794 -19.0625 13.5 C-24.15692177 10.86958876 -27.4482869 9.87524544 -33.125 10.625 C-33.455 10.955 -33.785 11.285 -34.125 11.625 C-34.00798986 18.76261851 -31.92441252 23.60491379 -28.5 29.828125 C-27.192904 32.4868771 -26.55065983 34.70923015 -26.125 37.625 C-26.75148438 37.79515625 -27.37796875 37.9653125 -28.0234375 38.140625 C-29.24933594 38.50414062 -29.24933594 38.50414062 -30.5 38.875 C-31.71816406 39.22304687 -31.71816406 39.22304687 -32.9609375 39.578125 C-35.58285454 40.8464892 -36.11882318 41.94923308 -37.125 44.625 C-36.25359375 45.12128906 -35.3821875 45.61757812 -34.484375 46.12890625 C-31.33841721 47.9219645 -28.19586377 49.72091642 -25.05419922 51.52148438 C-23.2479492 52.55467218 -21.43866078 53.5823432 -19.62890625 54.609375 C-18.57574219 55.21265625 -17.52257812 55.8159375 -16.4375 56.4375 C-15.00857422 57.25154297 -15.00857422 57.25154297 -13.55078125 58.08203125 C-11.38701671 59.45833881 -9.70752774 60.6133122 -8.125 62.625 C-8.54605263 67.04605263 -8.54605263 67.04605263 -10.125 68.625 C-12.65096259 68.86153523 -15.15607207 69.04673692 -17.6875 69.1875 C-18.75387695 69.25227539 -18.75387695 69.25227539 -19.84179688 69.31835938 C-21.60261912 69.42471777 -23.3637832 69.52538846 -25.125 69.625 C-25.125 70.615 -25.125 71.605 -25.125 72.625 C-22.2179357 74.78526765 -22.2179357 74.78526765 -19.125 76.625 C-18.125 77.625 -18.125 77.625 -17.5 80.25 C-18.38080844 85.00636559 -20.8994795 86.28778081 -24.72265625 89.01171875 C-25.51542969 89.54410156 -26.30820312 90.07648438 -27.125 90.625 C-27.76308594 91.06457031 -28.40117187 91.50414062 -29.05859375 91.95703125 C-30.40001892 92.86739893 -31.76017116 93.75010972 -33.125 94.625 C-32.27692035 96.89886959 -32.27692035 96.89886959 -29.60546875 97.51953125 C-28.51878906 97.82246094 -27.43210937 98.12539062 -26.3125 98.4375 C-21.65054461 99.79723699 -17.2546835 101.35204657 -12.8125 103.3125 C-5.5133972 106.42832254 -0.76153975 107.27441175 6.875 104.625 C9.93638975 104.25024367 12.82228292 104.14425715 15.875 104.625 C18.97722861 107.22686916 19.74733112 110.80827456 20.875 114.625 C31.75496182 115.39754167 41.03356711 106.3040966 48.875 99.625 C46.57871479 94.84915798 44.43869056 90.55620984 39.875 87.625 C34.74452745 87.15089693 29.94358072 87.81040667 24.875 88.625 C19.75851696 89.40465456 15.03368581 89.71550326 9.875 89.625 C10.205 87.975 10.535 86.325 10.875 84.625 C21.765 83.635 21.765 83.635 32.875 82.625 C32.875 79.79349299 31.77120224 79.03568932 29.8125 77.02734375 C23.85996728 71.96585374 17.31000206 72.85616543 9.875 73.1875 C8.51440359 73.22267386 7.1537192 73.2546022 5.79296875 73.28320312 C2.48470956 73.36532303 -0.81899291 73.48013933 -4.125 73.625 C-3.8125 71.6875 -3.8125 71.6875 -3.125 69.625 C-0.46581834 68.73860611 1.35564641 68.44510975 4.10546875 68.30859375 C4.90791016 68.26669922 5.71035156 68.22480469 6.53710938 68.18164062 C7.37048828 68.14232422 8.20386719 68.10300781 9.0625 68.0625 C9.90748047 68.01931641 10.75246094 67.97613281 11.62304688 67.93164062 C13.70684433 67.82568482 15.79090103 67.7248498 17.875 67.625 C17.875 66.965 17.875 66.305 17.875 65.625 C16.45852329 64.1926722 16.45852329 64.1926722 14.5625 62.6875 C10.88630746 59.54590637 7.34194592 56.30646824 3.875 52.9375 C2.451875 51.57044922 2.451875 51.57044922 1 50.17578125 C-1.125 47.625 -1.125 47.625 -1.125 43.625 C2.08097617 43.27049978 3.45371227 43.3091742 6.07910156 45.27734375 C6.8006543 46.03144531 7.52220703 46.78554687 8.265625 47.5625 C9.05710937 48.37460938 9.84859375 49.18671875 10.6640625 50.0234375 C11.47617187 50.88195312 12.28828125 51.74046875 13.125 52.625 C14.75338516 54.31425937 16.3834955 56.00185806 18.015625 57.6875 C18.73266602 58.44160156 19.44970703 59.19570312 20.18847656 59.97265625 C21.60054144 61.74163859 21.60054144 61.74163859 22.875 61.625 C23.535 55.025 24.195 48.425 24.875 41.625 C27.35 41.13 27.35 41.13 29.875 40.625 C29.8028125 41.43130859 29.730625 42.23761719 29.65625 43.06835938 C29.35159068 46.75177516 29.11283736 50.43669142 28.875 54.125 C28.76027344 55.3934375 28.64554687 56.661875 28.52734375 57.96875 C28.01788456 64.9933115 28.01788456 64.9933115 30.625 71.31640625 C32.6108682 73.3270978 34.53027168 75.05110731 36.875 76.625 C37.205 76.625 37.535 76.625 37.875 76.625 C38.865 69.365 39.855 62.105 40.875 54.625 C42.195 54.625 43.515 54.625 44.875 54.625 C45.03636262 63.53580233 45.03636262 63.53580233 44.375 68 C42.63590658 77.63496908 42.63590658 77.63496908 45.8828125 86.3984375 C48.12355939 88.62513582 50.39210219 90.67415172 52.875 92.625 C61.11580185 89.00840355 66.68591999 79.73203857 69.875 71.625 C70.08988961 68.40038903 70.08988961 68.40038903 69.875 65.625 C69.32070313 65.44324219 68.76640625 65.26148438 68.1953125 65.07421875 C67.10863281 64.69716797 67.10863281 64.69716797 66 64.3125 C65.28070313 64.06886719 64.56140625 63.82523438 63.8203125 63.57421875 C61.875 62.625 61.875 62.625 59.875 59.625 C59.3329634 55.44015859 59.52919953 51.60137781 60.9375 47.625 C63.37801055 39.81536625 59.82123256 32.09636022 56.875 24.875 C56.14227045 23.04830012 55.41298162 21.22021552 54.6875 19.390625 C54.36394531 18.59430664 54.04039062 17.79798828 53.70703125 16.97753906 C52.84584341 14.54256075 52.3212208 12.16597957 51.875 9.625 C48.28800175 14.00289541 45.12898564 18.60316848 41.97265625 23.296875 C39.875 25.625 39.875 25.625 37.2890625 26.59375 C34.875 26.625 34.875 26.625 32.1875 24.375 C29.875 21.625 29.875 21.625 27.875 18.625 C27.215 18.625 26.555 18.625 25.875 18.625 C23.93911593 22.49676814 24.39890435 27.26703958 24.15625 31.53515625 C23.875 34.625 23.875 34.625 22.875 35.625 C20.546875 35.96484375 20.546875 35.96484375 17.875 35.625 C11.58770417 29.70829681 7.69709735 20.85970918 3.93261719 13.20141602 C1.94969091 8.81166569 1.94969091 8.81166569 -2.125 6.625 Z " fill="#01C966" transform="translate(291.125,138.375)"/>
<path d="M0 0 C3.49918536 1.43148492 4.74612072 2.59197972 6.75 5.8125 C9.01424298 11.58631959 9.10539345 16.88717987 9 23 C10.85625 22.938125 10.85625 22.938125 12.75 22.875 C16.00283562 22.875 18.28187717 23.04295156 21 25 C22.6050581 28.21011621 22.36664088 30.42172604 22 34 C20.46624998 37.34458789 18.5154035 40.36487624 16.5 43.4375 C15.97535156 44.26443359 15.45070313 45.09136719 14.91015625 45.94335938 C13.62050424 47.97163027 12.31716876 49.98953424 11 52 C11.76183594 51.67644531 12.52367187 51.35289062 13.30859375 51.01953125 C16.46345867 49.82443728 18.64971616 49.64358683 22 50 C24.375 51.125 24.375 51.125 26 53 C26.74838855 57.81106927 25.37188193 60.84920663 23 65 C23.78503906 64.97679687 24.57007813 64.95359375 25.37890625 64.9296875 C31.33404485 64.82739064 36.40428197 64.88606208 42 67 C43 68 43 68 43.5 71.0625 C42.78512061 76.69217518 39.86827612 79.05846108 36 83 C34.65888079 84.49304288 33.32560207 85.99316327 32 87.5 C31.00419922 88.61568359 31.00419922 88.61568359 29.98828125 89.75390625 C27.47181493 92.59667272 25.00263217 95.47909045 22.54296875 98.37109375 C19.58009658 101.49898665 16.92373476 102.37750277 12.8125 103.125 C11.91144531 103.29257813 11.01039063 103.46015625 10.08203125 103.6328125 C9.39496094 103.75398438 8.70789063 103.87515625 8 104 C8.05800781 104.66386719 8.11601562 105.32773438 8.17578125 106.01171875 C8.54570259 113.25160787 8.54570259 113.25160787 5.8125 117 C0.77251591 120.58398868 -3.51393055 121.35901623 -9.625 121.3125 C-10.6759082 121.31056641 -10.6759082 121.31056641 -11.74804688 121.30859375 C-17.80451846 121.19777085 -23.28532731 120.03403604 -29 118 C-29.17015625 118.93199219 -29.3403125 119.86398438 -29.515625 120.82421875 C-33.2593801 140.5187602 -33.2593801 140.5187602 -37 148 C-38.65 148 -40.3 148 -42 148 C-42.38687468 141.06918128 -40.98290918 135.26073881 -39.0625 128.625 C-38.78470703 127.62855469 -38.50691406 126.63210937 -38.22070312 125.60546875 C-36.18174981 118.36349961 -36.18174981 118.36349961 -35 116 C-35.66644531 115.85304688 -36.33289063 115.70609375 -37.01953125 115.5546875 C-46.97651613 113.13158908 -58.10681037 108.83978444 -64 100 C-64.68085106 92.85106383 -64.68085106 92.85106383 -62 89.5 C-61.34 89.005 -60.68 88.51 -60 88 C-61.11446885 85.16317019 -62.07594024 83.93924781 -64.5 82 C-68.45465181 78.83627855 -69.22426769 75.64768628 -70 70.75390625 C-70.165 69.75166016 -70.33 68.74941406 -70.5 67.71679688 C-70.665 66.67587891 -70.83 65.63496094 -71 64.5625 C-71.32808102 62.50045955 -71.66124575 60.43922019 -72 58.37890625 C-72.144375 57.4669751 -72.28875 56.55504395 -72.4375 55.61547852 C-73.0187787 52.91268392 -73.97466841 50.5609749 -75 48 C-75.52543786 41.90492077 -75.52543786 41.90492077 -73.875 39.0625 C-71.09305624 37.4860652 -69.1812782 37.72869941 -66 38 C-63.41984762 39.08289051 -61.06972953 40.17811075 -58.625 41.5 C-57.98433594 41.83386719 -57.34367187 42.16773438 -56.68359375 42.51171875 C-55.11666329 43.33026451 -53.55749759 44.16364513 -52 45 C-52.02320313 44.38511719 -52.04640625 43.77023438 -52.0703125 43.13671875 C-52.09738281 41.92435547 -52.09738281 41.92435547 -52.125 40.6875 C-52.14820313 39.88699219 -52.17140625 39.08648437 -52.1953125 38.26171875 C-52 36 -52 36 -50 33 C-46.6875 32.5 -46.6875 32.5 -43 33 C-40.125 35.4375 -40.125 35.4375 -38 38 C-37.67 38.33 -37.34 38.66 -37 39 C-36.9906543 38.3294458 -36.98130859 37.6588916 -36.97167969 36.96801758 C-36.91783404 33.91544433 -36.83421505 30.86438018 -36.75 27.8125 C-36.73582031 26.75740234 -36.72164062 25.70230469 -36.70703125 24.61523438 C-36.46090252 16.81295359 -36.46090252 16.81295359 -34.1640625 12.76171875 C-32 11 -32 11 -28.625 11 C-25.10474656 11.9711044 -22.1782963 13.2170533 -19 15 C-18.79375 14.319375 -18.5875 13.63875 -18.375 12.9375 C-14.67143116 5.0253302 -9.08594516 -0.95641528 0 0 Z M-10.5078125 11.84375 C-12.9706918 15.40267506 -15.02785747 19.15170419 -17 23 C-21.43095211 22.29490712 -23.56106297 20.88127157 -27 18 C-27.66 18 -28.32 18 -29 18 C-29.01981934 18.79172607 -29.03963867 19.58345215 -29.06005859 20.39916992 C-29.1554716 23.9956076 -29.26508591 27.59147751 -29.375 31.1875 C-29.4059375 32.43337891 -29.436875 33.67925781 -29.46875 34.96289062 C-29.50742188 36.16494141 -29.54609375 37.36699219 -29.5859375 38.60546875 C-29.6173584 39.71043701 -29.6487793 40.81540527 -29.68115234 41.95385742 C-29.99877182 44.98826646 -30.72246035 47.24544522 -32 50 C-34.234375 50.34375 -34.234375 50.34375 -37 50 C-39.203125 47.59375 -39.203125 47.59375 -41.25 44.5 C-42.4872689 42.65805082 -43.73389321 40.82224716 -45 39 C-45.33 39 -45.66 39 -46 39 C-46.13277344 39.71027344 -46.26554687 40.42054688 -46.40234375 41.15234375 C-46.57894531 42.07144531 -46.75554687 42.99054688 -46.9375 43.9375 C-47.11152344 44.85402344 -47.28554687 45.77054688 -47.46484375 46.71484375 C-48 49 -48 49 -49 50 C-56.30324931 51.136061 -61.75050824 47.44799546 -68 44 C-67.87882812 44.62003906 -67.75765625 45.24007812 -67.6328125 45.87890625 C-66.33520675 52.73625357 -65.41324668 59.58086307 -64.66015625 66.51953125 C-63.45342413 72.88165149 -61.11810689 76.19422821 -56 80 C-53.86413322 83.20380017 -53.76867825 84.01939967 -53.875 87.6875 C-53.89304688 88.49574219 -53.91109375 89.30398437 -53.9296875 90.13671875 C-53.96449219 91.05904297 -53.96449219 91.05904297 -54 92 C-55.98 92.99 -55.98 92.99 -58 94 C-57.27635097 97.96729939 -55.57489413 99.84189249 -52.44140625 102.40625 C-47.02458039 105.94235392 -39.52225796 110 -33 110 C-32.4387698 108.27708363 -31.90177067 106.54626261 -31.375 104.8125 C-31.07335937 103.84957031 -30.77171875 102.88664062 -30.4609375 101.89453125 C-29.64864539 96.79361213 -31.99273502 93.91504667 -34.85546875 89.8984375 C-36.53019879 87.60943969 -38.21940806 85.33240796 -39.91992188 83.0625 C-40.45552734 82.32773438 -40.99113281 81.59296875 -41.54296875 80.8359375 C-42.03821045 80.17126465 -42.53345215 79.5065918 -43.04370117 78.82177734 C-43.35927979 78.22059082 -43.6748584 77.6194043 -44 77 C-43.505 75.515 -43.505 75.515 -43 74 C-40.9375 73.3125 -40.9375 73.3125 -39 73 C-38.62875 73.79664063 -38.62875 73.79664063 -38.25 74.609375 C-36.67664388 77.61841857 -34.86437713 80.41230833 -33 83.25 C-32.29875 84.32765625 -31.5975 85.4053125 -30.875 86.515625 C-30.25625 87.33546875 -29.6375 88.1553125 -29 89 C-28.34 89 -27.68 89 -27 89 C-25.43476417 84.66062976 -24.22092285 80.85115274 -26.06982422 76.45800781 C-27.75015299 73.90675524 -29.53314948 71.51357231 -31.4375 69.125 C-32.6968933 67.48995349 -33.94614052 65.84702618 -35.18359375 64.1953125 C-35.74618896 63.48391113 -36.30878418 62.77250977 -36.88842773 62.03955078 C-38 60 -38 60 -37.67602539 57.73779297 C-37.45293701 57.16432129 -37.22984863 56.59084961 -37 56 C-35.296875 56.08984375 -35.296875 56.08984375 -33 57 C-31.26326118 59.16517274 -29.74910911 61.24547306 -28.25 63.5625 C-27.83878906 64.17802734 -27.42757812 64.79355469 -27.00390625 65.42773438 C-25.99236489 66.94504641 -24.99480211 68.47166086 -24 70 C-21.26516026 67.66199311 -20.43271319 65.80908029 -19.61328125 62.33203125 C-19.39736328 61.43935547 -19.18144531 60.54667969 -18.95898438 59.62695312 C-18.63897461 58.23379883 -18.63897461 58.23379883 -18.3125 56.8125 C-18.08755859 55.87212891 -17.86261719 54.93175781 -17.63085938 53.96289062 C-17.07762663 51.64402147 -16.53442948 49.32326169 -16 47 C-14.02 46.505 -14.02 46.505 -12 46 C-10.3404007 50.99867335 -11.86192424 54.76995232 -13.4375 59.5625 C-13.92032822 61.06221311 -14.39836671 62.56347856 -14.87109375 64.06640625 C-15.08693115 64.72584229 -15.30276855 65.38527832 -15.52514648 66.06469727 C-16.15886378 68.31534388 -16.15886378 68.31534388 -16 72 C-12.42724639 70.92817392 -9.21539656 69.62901675 -5.9375 67.875 C-2.8146134 66.25661347 -0.58020372 65.55247453 3 66 C3 67.32 3 68.64 3 70 C2.37955811 70.26627197 1.75911621 70.53254395 1.11987305 70.80688477 C-1.70221624 72.03446587 -4.5068394 73.29784803 -7.3125 74.5625 C-8.77719727 75.18995117 -8.77719727 75.18995117 -10.27148438 75.83007812 C-16.34947939 78.4829393 -16.34947939 78.4829393 -20.23046875 83.58984375 C-20.92433526 86.66469383 -21.25026676 88.15848464 -20 91 C-18.96359375 90.4946875 -17.9271875 89.989375 -16.859375 89.46875 C-15.48977797 88.81209389 -14.11997545 88.15586625 -12.75 87.5 C-12.06808594 87.16613281 -11.38617188 86.83226562 -10.68359375 86.48828125 C-7.1479008 84.80625256 -4.98070714 84 -1 84 C-0.67 85.65 -0.34 87.3 0 89 C-1.175625 89.350625 -2.35125 89.70125 -3.5625 90.0625 C-5.38170069 90.68921029 -7.19310322 91.33865216 -9 92 C-9.61053223 92.22042969 -10.22106445 92.44085938 -10.85009766 92.66796875 C-19.3520605 95.59728544 -19.3520605 95.59728544 -25.62890625 101.57421875 C-26.70975292 105.15093356 -27 108.27610406 -27 112 C-17.62822141 114.10348538 -7.00912132 116.18874275 2 112 C1.93039063 111.25234375 1.86078125 110.5046875 1.7890625 109.734375 C1.62408564 106.73336739 1.59211143 103.97973337 2 101 C5.09960443 97.82479547 6.97089898 97.07622971 11.375 96.75 C19.29459296 95.11146353 24.2943284 86.59044143 29.04296875 80.4921875 C31.30554863 77.61089815 33.64515516 74.80629178 36 72 C34.79601562 71.86722656 33.59203125 71.73445313 32.3515625 71.59765625 C30.77601915 71.4194698 29.20049953 71.2410735 27.625 71.0625 C26.43390625 70.93198242 26.43390625 70.93198242 25.21875 70.79882812 C19.2265625 70.11328125 19.2265625 70.11328125 17 69 C16.82164485 64.45194365 17.00214565 61.1205746 19 57 C16.0342662 57.42367626 14.10852001 57.93043589 11.5625 59.5625 C8.47834107 61.29263793 6.48435731 61.31675976 3 61 C2.67 60.67 2.34 60.34 2 60 C2.35222922 54.57431529 3.95531803 50.62935713 6.75 46.0625 C7.10835938 45.45567383 7.46671875 44.84884766 7.8359375 44.22363281 C9.83184212 40.86182584 11.90154427 37.54843472 14 34.25 C16.17469914 31.35212796 16.17469914 31.35212796 16 29 C11.81475251 28.91793632 8.08918864 29.15810822 4 30 C1.80119906 27.80119906 2.59697012 22.18489688 2.48242188 19.078125 C2.23337734 12.50849988 2.23337734 12.50849988 -1 7 C-5.91479013 5.8766194 -7.67608142 8.26373764 -10.5078125 11.84375 Z " fill="#01C966" transform="translate(192,108)"/>
<path d="M0 0 C5.16499193 3.50709328 6.27180309 7.86106424 7.62890625 13.7109375 C8.89382138 20.59278346 9.20209067 27.3968464 9.25 34.375 C9.25926514 35.21901367 9.26853027 36.06302734 9.27807617 36.93261719 C9.2160589 49.21446867 4.30894305 60.26394621 -4.375 68.9375 C-10.70953365 74.90294836 -16.95669743 78.81619273 -25 82 C-25 83.65 -25 85.3 -25 87 C-24.28457031 87.01417969 -23.56914062 87.02835937 -22.83203125 87.04296875 C-14.45929558 87.44373359 -7.65091997 89.65580756 0 93 C-6.96370345 100.49242908 -16.69284436 106.03959947 -27 107 C-27.95003906 107.0928125 -28.90007812 107.185625 -29.87890625 107.28125 C-39.69654504 107.7630973 -50.71604711 105.52263526 -59 100 C-57.23191172 91.93123398 -52.72143984 82.9592426 -47 77 C-42.2097293 74.63838361 -37.16543619 75.19834661 -32 76 C-32 74.68 -32 73.36 -32 72 C-35.3 71.67 -38.6 71.34 -42 71 C-41.34028128 69.33057093 -40.67169885 67.66464497 -40 66 C-39.60425781 64.97261719 -39.20851562 63.94523437 -38.80078125 62.88671875 C-37.15781899 59.35499673 -35.7584866 56.77149833 -33 54 C-27.81525307 52.93851375 -23.21121975 53.27566057 -18 54 C-18 52.35 -18 50.7 -18 49 C-21.3 48.67 -24.6 48.34 -28 48 C-27.34133836 46.33015358 -26.67247923 44.66432987 -26 43 C-25.60425781 41.98421875 -25.20851562 40.9684375 -24.80078125 39.921875 C-23.15149767 36.40686643 -21.71274031 33.79804661 -19 31 C-13.88780335 29.65357784 -9.2464004 29.64888955 -4 30 C-4 28.68 -4 27.36 -4 26 C-7.3 25.67 -10.6 25.34 -14 25 C-12.68071914 21.48283007 -11.12651609 18.34691482 -9.1796875 15.13671875 C-8.64472656 14.25048828 -8.10976562 13.36425781 -7.55859375 12.45117188 C-7.00300781 11.53916016 -6.44742188 10.62714844 -5.875 9.6875 C-5.31167969 8.75615234 -4.74835938 7.82480469 -4.16796875 6.86523438 C-2.7819554 4.57478858 -1.39254372 2.28647924 0 0 Z " fill="#191E27" transform="translate(220,258)"/>
<path d="M0 0 C0.89203125 0.00902344 1.7840625 0.01804688 2.703125 0.02734375 C3.37859375 0.03894531 4.0540625 0.05054688 4.75 0.0625 C3.70102898 5.4046665 0.58838455 9.70859392 -2.1875 14.3125 C-3.01411133 15.71628906 -3.01411133 15.71628906 -3.85742188 17.1484375 C-4.38787109 18.03273438 -4.91832031 18.91703125 -5.46484375 19.828125 C-5.95073975 20.64055664 -6.43663574 21.45298828 -6.93725586 22.29003906 C-7.37046143 22.87495117 -7.80366699 23.45986328 -8.25 24.0625 C-8.91 24.0625 -9.57 24.0625 -10.25 24.0625 C-13.25 19.67788462 -13.25 19.67788462 -13.25 17.0625 C-14.9 17.3925 -16.55 17.7225 -18.25 18.0625 C-17.71584863 22.33571092 -16.08188001 25.37148834 -13.89453125 29 C-12.9609686 31.98740047 -13.84642932 33.3088672 -15.25 36.0625 C-16.37322885 38.02550136 -17.5419147 39.96305145 -18.75 41.875 C-19.3584375 42.85082031 -19.966875 43.82664062 -20.59375 44.83203125 C-21.1403125 45.56808594 -21.686875 46.30414063 -22.25 47.0625 C-22.91 47.0625 -23.57 47.0625 -24.25 47.0625 C-24.8275 45.928125 -25.405 44.79375 -26 43.625 C-27.60492635 40.68939703 -27.60492635 40.68939703 -30.5 39.125 C-31.0775 39.104375 -31.655 39.08375 -32.25 39.0625 C-31.81844095 44.24120863 -30.63826159 47.64730908 -27.89453125 52.0703125 C-26.94311019 55.01106851 -27.87389458 56.33837295 -29.25 59.0625 C-30.42679828 61.18446433 -31.63674075 63.28830385 -32.875 65.375 C-33.50664062 66.44363281 -34.13828125 67.51226562 -34.7890625 68.61328125 C-35.51222656 69.82564453 -35.51222656 69.82564453 -36.25 71.0625 C-38.80489105 68.62211387 -40.50254702 66.14134573 -42.25 63.0625 C-44.23 63.5575 -44.23 63.5575 -46.25 64.0625 C-45.46624106 67.80619962 -43.88833014 70.67601704 -41.9921875 73.96484375 C-41.01048038 76.73945809 -41.48757646 78.2330904 -42.25 81.0625 C-43.46508789 83.37426758 -43.46508789 83.37426758 -44.97265625 85.70703125 C-45.51083984 86.54814453 -46.04902344 87.38925781 -46.60351562 88.25585938 C-47.44946289 89.55233398 -47.44946289 89.55233398 -48.3125 90.875 C-48.88033203 91.75865234 -49.44816406 92.64230469 -50.03320312 93.55273438 C-51.43193044 95.72722641 -52.83766338 97.8968325 -54.25 100.0625 C-66.58793158 92.33863068 -74.19989267 83.21877139 -78.25 69.0625 C-79.98111077 61.33908274 -80.43703483 52.43251804 -77.25 45.0625 C-73.67723096 46.57624725 -71.39319629 48.68144388 -68.6875 51.4375 C-67.54087891 52.59378906 -67.54087891 52.59378906 -66.37109375 53.7734375 C-61.25 59.30006906 -61.25 59.30006906 -61.25 62.0625 C-59.6 62.0625 -57.95 62.0625 -56.25 62.0625 C-56.21261719 61.05832031 -56.17523438 60.05414063 -56.13671875 59.01953125 C-55.4327884 43.20637754 -53.2333656 28.50355231 -41.375 16.875 C-32.3301627 9.45916427 -20.66630444 3.58444497 -9.25 1.0625 C-8.61191406 0.87816406 -7.97382813 0.69382813 -7.31640625 0.50390625 C-4.83165348 -0.02686325 -2.53850389 -0.03340137 0 0 Z " fill="#191E27" transform="translate(209.25,253.9375)"/>
<path d="M0 0 C0.90234375 -0.01224609 1.8046875 -0.02449219 2.734375 -0.03710938 C3.60578125 -0.03904297 4.4771875 -0.04097656 5.375 -0.04296875 C6.16648437 -0.04707764 6.95796875 -0.05118652 7.7734375 -0.05541992 C10.23783271 0.21344776 11.86541094 0.9578573 14 2.1875 C8.97417758 8.09254431 4.03498089 13.27427398 -2.34765625 17.71484375 C-3.16556641 18.44380859 -3.16556641 18.44380859 -4 19.1875 C-4 20.1775 -4 21.1675 -4 22.1875 C-2.31197266 22.20876953 -2.31197266 22.20876953 -0.58984375 22.23046875 C15.7747186 22.65172761 30.18825151 26.00486543 42.0625 38.0625 C50.99819747 48.60341258 59.24812084 65.57843684 59.0625 79.5 C59.05347656 80.38300781 59.04445313 81.26601563 59.03515625 82.17578125 C59.02355469 82.83964844 59.01195312 83.50351562 59 84.1875 C53.51614353 82.11954657 48.70082044 79.19194928 43.6875 76.1875 C42.75615234 75.6409375 41.82480469 75.094375 40.86523438 74.53125 C39.98544922 74.0053125 39.10566406 73.479375 38.19921875 72.9375 C37.39315186 72.45796875 36.58708496 71.9784375 35.7565918 71.484375 C35.1769165 71.05640625 34.59724121 70.6284375 34 70.1875 C34 69.5275 34 68.8675 34 68.1875 C35.134375 67.61 36.26875 67.0325 37.4375 66.4375 C40.37310297 64.83257365 40.37310297 64.83257365 41.9375 61.9375 C41.958125 61.36 41.97875 60.7825 42 60.1875 C37.75215373 60.53426296 34.96391386 61.03234634 31.375 63.375 C28 65.1875 28 65.1875 25.68359375 64.51953125 C22.62340364 63.00057226 19.64789585 61.39361336 16.6875 59.6875 C15.08455078 58.77484375 15.08455078 58.77484375 13.44921875 57.84375 C12.23685547 57.02390625 12.23685547 57.02390625 11 56.1875 C11 55.5275 11 54.8675 11 54.1875 C16.75 51.1875 16.75 51.1875 19 51.1875 C18.505 48.2175 18.505 48.2175 18 45.1875 C17.33613281 45.45304687 16.67226563 45.71859375 15.98828125 45.9921875 C13.32552083 47.05729167 10.66276042 48.12239583 8 49.1875 C7.2265625 49.64898437 6.453125 50.11046875 5.65625 50.5859375 C1.98305301 51.41780858 0.35627115 50.17193822 -2.77148438 48.26171875 C-3.44501953 47.82472656 -4.11855469 47.38773437 -4.8125 46.9375 C-5.50537109 46.51597656 -6.19824219 46.09445312 -6.91210938 45.66015625 C-8.65363022 44.57234914 -10.33324374 43.38672589 -12 42.1875 C-12 41.5275 -12 40.8675 -12 40.1875 C-9.69 39.1975 -7.38 38.2075 -5 37.1875 C-5.33 35.5375 -5.66 33.8875 -6 32.1875 C-9.25312358 33.1944192 -12.04750717 34.21521252 -15 35.9375 C-18 37.1875 -18 37.1875 -20.6640625 36.5703125 C-24.82922471 34.84376985 -28.5497656 32.68511374 -32.375 30.3125 C-33.11105469 29.87808594 -33.84710938 29.44367188 -34.60546875 28.99609375 C-35.30027344 28.56683594 -35.99507813 28.13757813 -36.7109375 27.6953125 C-37.34306152 27.31004395 -37.97518555 26.92477539 -38.62646484 26.52783203 C-39.07973145 26.08552246 -39.53299805 25.64321289 -40 25.1875 C-40 19.38221083 -36.92248761 17.18750713 -33 13.1875 C-32.47148437 12.64609375 -31.94296875 12.1046875 -31.3984375 11.546875 C-22.30774319 3.03834338 -12.05879799 0.00861343 0 0 Z " fill="#191E27" transform="translate(330,299.8125)"/>
<path d="M0 0 C8.0631587 1.75654715 16.97914589 6.37374732 23 12 C25.30021904 16.43548214 24.80751072 21.19004481 24 26 C25.65 26.33 27.3 26.66 29 27 C29.33 23.7 29.66 20.4 30 17 C31.72990025 17.93614567 33.45888696 18.87397958 35.1875 19.8125 C36.15042969 20.33457031 37.11335938 20.85664063 38.10546875 21.39453125 C39.06066406 21.92433594 40.01585937 22.45414062 41 23 C41.928125 23.4125 42.85625 23.825 43.8125 24.25 C46 26 46 26 46.70703125 29.35546875 C46.75923828 31.25232422 46.75923828 31.25232422 46.8125 33.1875 C46.86019531 34.45980469 46.90789062 35.73210937 46.95703125 37.04296875 C46.97121094 38.01878906 46.98539062 38.99460937 47 40 C49.07553648 40.5534764 50.84365964 41 53 41 C53 37.7 53 34.4 53 31 C54.72990025 31.93614567 56.45888696 32.87397958 58.1875 33.8125 C59.15042969 34.33457031 60.11335938 34.85664063 61.10546875 35.39453125 C62.06066406 35.92433594 63.01585937 36.45414062 64 37 C64.928125 37.4125 65.85625 37.825 66.8125 38.25 C69 40 69 40 69.70703125 43.35546875 C69.75923828 45.25232422 69.75923828 45.25232422 69.8125 47.1875 C69.88404297 49.09595703 69.88404297 49.09595703 69.95703125 51.04296875 C69.97121094 52.01878906 69.98539062 52.99460937 70 54 C71.94603274 54.59070014 71.94603274 54.59070014 74 55 C75.58272601 53.41727399 75.34735747 51.61965997 75.5625 49.4375 C75.68818359 48.19806641 75.68818359 48.19806641 75.81640625 46.93359375 C75.87699219 46.29550781 75.93757813 45.65742188 76 45 C84.51380867 48.90379706 92.20933223 53.84738256 100 59 C92.38855799 67.0944438 80.93603101 67.80045444 70.32421875 68.2265625 C55.55278496 68.59749776 45.62128616 66.73577327 34 57 C33.32839844 56.44183594 32.65679687 55.88367188 31.96484375 55.30859375 C26.35552894 50.19240552 23.02193034 43.60244843 19.99609375 36.71484375 C19.08926805 34.69735505 19.08926805 34.69735505 16.375 34.25 C15.59125 34.1675 14.8075 34.085 14 34 C13.97873047 34.83917969 13.97873047 34.83917969 13.95703125 35.6953125 C13.48145115 43.69019959 10.88757416 50.60525288 8 58 C7.01 58 6.02 58 5 58 C-5.11531511 45.86631575 -7.2875994 32.78784509 -6.296875 17.49072266 C-5.63141816 11.90767112 -3.57742005 6.9773784 -1 2 C-0.67 1.34 -0.34 0.68 0 0 Z " fill="#191D26" transform="translate(284,330)"/>
</svg>
